<?xml version="1.0" encoding="UTF-8" standalone="no"?><svg xmlns="http://www.w3.org/2000/svg" xmlns:xlink="http://www.w3.org/1999/xlink" contentScriptType="application/ecmascript" contentStyleType="text/css" height="610px" preserveAspectRatio="none" style="width:856px;height:610px;" version="1.1" viewBox="0 0 856 610" width="856px" zoomAndPan="magnify"><defs><filter height="300%" id="f84shpz26yjsr" width="300%" x="-1" y="-1"><feGaussianBlur result="blurOut" stdDeviation="2.0"/><feColorMatrix in="blurOut" result="blurOut2" type="matrix" values="0 0 0 0 0 0 0 0 0 0 0 0 0 0 0 0 0 0 .4 0"/><feOffset dx="4.0" dy="4.0" in="blurOut2" result="blurOut3"/><feBlend in="SourceGraphic" in2="blurOut3" mode="normal"/></filter></defs><g><!--MD5=[4ef80439e1ef409f8f3a0ec422262701]
cluster server--><polygon fill="#FFFFFF" filter="url(#f84shpz26yjsr)" points="106.5,67.3482,210.5,67.3482,217.5,89.645,738.5,89.645,738.5,603.3482,106.5,603.3482,106.5,67.3482" style="stroke:#000000;stroke-width:1.5;"/><line style="stroke:#000000;stroke-width:1.5;" x1="106.5" x2="217.5" y1="89.645" y2="89.645"/><text fill="#000000" font-family="sans-serif" font-size="14" font-weight="bold" lengthAdjust="spacing" textLength="98" x="110.5" y="82.3433">Linux server</text><!--MD5=[a8c8b1559d62d6023e390ce89f363649]
cluster docker_all--><polygon fill="#FFFFFF" filter="url(#f84shpz26yjsr)" points="226.5,128.3482,236.5,118.3482,706.5,118.3482,706.5,561.3482,696.5,571.3482,226.5,571.3482,226.5,128.3482" style="stroke:#000000;stroke-width:1.5;"/><line style="stroke:#000000;stroke-width:1.5;" x1="696.5" x2="706.5" y1="128.3482" y2="118.3482"/><line style="stroke:#000000;stroke-width:1.5;" x1="226.5" x2="696.5" y1="128.3482" y2="128.3482"/><line style="stroke:#000000;stroke-width:1.5;" x1="696.5" x2="696.5" y1="128.3482" y2="571.3482"/><text fill="#000000" font-family="sans-serif" font-size="14" font-weight="bold" lengthAdjust="spacing" textLength="55" x="435" y="144.3433">Docker</text><!--MD5=[5ec7eedd57310648f8059ffb2621ca4b]
cluster docker--><polygon fill="#FFFFFF" filter="url(#f84shpz26yjsr)" points="266.5,295.3482,463.5,295.3482,470.5,317.645,674.5,317.645,674.5,539.3482,266.5,539.3482,266.5,295.3482" style="stroke:#000000;stroke-width:1.5;"/><line style="stroke:#000000;stroke-width:1.5;" x1="266.5" x2="470.5" y1="317.645" y2="317.645"/><text fill="#000000" font-family="sans-serif" font-size="14" font-weight="bold" lengthAdjust="spacing" textLength="191" x="270.5" y="310.3433">main docker containers</text><!--MD5=[4a6d9f15681740978dbb7753780586a2]
cluster aux_docker--><polygon fill="#FFFFFF" filter="url(#f84shpz26yjsr)" points="482.5,174.3482,650.5,174.3482,657.5,196.645,674.5,196.645,674.5,271.3482,482.5,271.3482,482.5,174.3482" style="stroke:#000000;stroke-width:1.5;"/><line style="stroke:#000000;stroke-width:1.5;" x1="482.5" x2="657.5" y1="196.645" y2="196.645"/><text fill="#000000" font-family="sans-serif" font-size="14" font-weight="bold" lengthAdjust="spacing" textLength="162" x="486.5" y="189.3433">auxiliary containers</text><!--MD5=[22cf16bd7d36de996a9ee4edb9f90edb]
entity ssl_port--><rect fill="#FEFECE" filter="url(#f84shpz26yjsr)" height="22.2969" style="stroke:#000000;stroke-width:1.5;" width="80" x="122.5" y="472.8482"/><text fill="#000000" font-family="sans-serif" font-size="14" lengthAdjust="spacing" textLength="60" x="132.5" y="488.8433">Port 443</text><!--MD5=[8824c66cba45be527cf3dd56bcd70cd2]
entity nginx--><polygon fill="#FEFECE" filter="url(#f84shpz26yjsr)" points="283,454.3482,293,444.3482,540,444.3482,540,513.2388,530,523.2388,283,523.2388,283,454.3482" style="stroke:#000000;stroke-width:1.5;"/><line style="stroke:#000000;stroke-width:1.5;" x1="530" x2="540" y1="454.3482" y2="444.3482"/><line style="stroke:#000000;stroke-width:1.5;" x1="283" x2="530" y1="454.3482" y2="454.3482"/><line style="stroke:#000000;stroke-width:1.5;" x1="530" x2="530" y1="454.3482" y2="523.2388"/><text fill="#000000" font-family="sans-serif" font-size="14" lengthAdjust="spacing" textLength="45" x="298" y="477.3433">NGINX</text><text fill="#000000" font-family="sans-serif" font-size="14" lengthAdjust="spacing" textLength="202" x="298" y="493.6401">(acting as reverse proxy and</text><text fill="#000000" font-family="sans-serif" font-size="14" lengthAdjust="spacing" textLength="217" x="298" y="509.937">providing SSL/TLS encryption)</text><!--MD5=[95056b5cbad1279cc73d9cc5c17a1af7]
entity mysql--><path d="M419.5,344.3482 C419.5,334.3482 453.5,334.3482 453.5,334.3482 C453.5,334.3482 487.5,334.3482 487.5,344.3482 L487.5,369.645 C487.5,379.645 453.5,379.645 453.5,379.645 C453.5,379.645 419.5,379.645 419.5,369.645 L419.5,344.3482 " fill="#FEFECE" filter="url(#f84shpz26yjsr)" style="stroke:#000000;stroke-width:1.5;"/><path d="M419.5,344.3482 C419.5,354.3482 453.5,354.3482 453.5,354.3482 C453.5,354.3482 487.5,354.3482 487.5,344.3482 " fill="none" style="stroke:#000000;stroke-width:1.5;"/><text fill="#000000" font-family="sans-serif" font-size="14" lengthAdjust="spacing" textLength="48" x="429.5" y="371.3433">MySQL</text><!--MD5=[97cfcd8de13668dc3f9409c95be952b4]
entity ghost--><polygon fill="#FEFECE" filter="url(#f84shpz26yjsr)" points="575,470.8482,585,460.8482,658,460.8482,658,497.145,648,507.145,575,507.145,575,470.8482" style="stroke:#000000;stroke-width:1.5;"/><line style="stroke:#000000;stroke-width:1.5;" x1="648" x2="658" y1="470.8482" y2="460.8482"/><line style="stroke:#000000;stroke-width:1.5;" x1="575" x2="648" y1="470.8482" y2="470.8482"/><line style="stroke:#000000;stroke-width:1.5;" x1="648" x2="648" y1="470.8482" y2="507.145"/><text fill="#000000" font-family="sans-serif" font-size="14" lengthAdjust="spacing" textLength="43" x="590" y="493.8433">Ghost</text><!--MD5=[107003500c5c42cbbef62457b4e1bbc7]
entity volume--><rect fill="#FEFECE" filter="url(#f84shpz26yjsr)" height="52.5938" rx="35" ry="35" style="stroke:#000000;stroke-width:1.5;" width="135" x="523" y="330.3482"/><text fill="#000000" font-family="sans-serif" font-size="14" lengthAdjust="spacing" textLength="54" x="533" y="353.3433">Volume</text><text fill="#000000" font-family="sans-serif" font-size="14" lengthAdjust="spacing" textLength="115" x="533" y="369.6401">(Ghost content)</text><!--MD5=[1dafad35a42ae3bedb1c51d71bd8abe5]
entity backup_cont--><polygon fill="#FEFECE" filter="url(#f84shpz26yjsr)" points="499,219.3482,509,209.3482,658,209.3482,658,245.645,648,255.645,499,255.645,499,219.3482" style="stroke:#000000;stroke-width:1.5;"/><line style="stroke:#000000;stroke-width:1.5;" x1="648" x2="658" y1="219.3482" y2="209.3482"/><line style="stroke:#000000;stroke-width:1.5;" x1="499" x2="648" y1="219.3482" y2="219.3482"/><line style="stroke:#000000;stroke-width:1.5;" x1="648" x2="648" y1="219.3482" y2="255.645"/><text fill="#000000" font-family="sans-serif" font-size="14" lengthAdjust="spacing" textLength="119" x="514" y="242.3433">backup / restore</text><!--MD5=[e209b37fc91f378abaa2ddf468318055]
entity actor--><ellipse cx="46.5" cy="452.8482" fill="#FEFECE" filter="url(#f84shpz26yjsr)" rx="8" ry="8" style="stroke:#A80036;stroke-width:1.5;"/><path d="M46.5,460.8482 L46.5,487.8482 M33.5,468.8482 L59.5,468.8482 M46.5,487.8482 L33.5,502.8482 M46.5,487.8482 L59.5,502.8482 " fill="none" filter="url(#f84shpz26yjsr)" style="stroke:#A80036;stroke-width:1.5;"/><text fill="#000000" font-family="sans-serif" font-size="14" lengthAdjust="spacing" textLength="81" x="6" y="521.3433">Blog visitor</text><!--MD5=[fb96cda1e54d33aeb4c1270b4462e657]
entity dropbox--><path d="M763.3558,219.466 C767.1328,212.1935 771.5181,210.9841 777.3656,217.3372 C780.4916,210.8565 785.6872,210.2004 790.5285,215.405 C794.1776,209.4074 798.578,208.6292 803.0518,214.5375 C807.7304,209.1153 812.5902,211.4732 814.3567,217.4305 C818.3876,211.3162 823.5018,212.0954 827.1884,217.8041 C831.0185,212.2263 837.4779,212.2006 840.3549,218.8317 C847.621,223.4586 847.5109,228.082 841.6925,233.8724 C847.6846,237.9179 849.399,244.4469 841.5478,248.3541 C838.1071,255.0697 833.7383,256.4732 828.317,250.4037 C826.1251,256.5111 820.1494,259.0332 815.2989,253.3355 C811.816,260.7145 807.3405,262.2633 801.6226,255.4962 C796.4731,260.854 792.8636,259.9204 790.206,253.1504 C784.9871,259.68 779.6187,257.1575 776.6485,250.7871 C772.4553,256.535 767.4782,256.4651 764.3662,249.7239 C755.5715,246.6603 755.1873,240.2302 761.5161,234.361 C755.6795,228.4766 754.977,223.5948 763.3558,219.466 " fill="#FEFECE" filter="url(#f84shpz26yjsr)" style="stroke:#000000;stroke-width:1.5;"/><text fill="#000000" font-family="sans-serif" font-size="14" lengthAdjust="spacing" textLength="63" x="770" y="237.3433">Dropbox</text><!--MD5=[7c0dd979139b9740918e346e8c1a7d60]
entity hub--><path d="M187.2157,14.1591 C190.4218,9.1519 195.9614,9.3906 198.8776,14.4935 C201.9232,7.9028 206.5983,7.9665 210.9194,13.1939 C214.3688,6.2577 219.733,7.0477 224.1478,12.1314 C227.0062,6.5924 232.8518,6 236.54,11.1712 C239.8694,6.1647 245.3248,6.7274 247.4661,12.3881 C251.3834,7.1381 256.8996,7.5655 260.328,12.9779 C264.0809,7.5806 268.9209,7.3025 272.6248,13.0321 C277.3793,8.5249 280.7835,9.4666 283.0606,15.4878 C291.1093,18.7445 293.6445,23.1972 287.1598,30.4387 C291.3588,36.5241 291.7776,40.9958 283.5248,43.6571 C280.3352,50.6742 276.5695,51.7221 271.1354,45.8074 C268.4183,51.5142 263.3058,51.3178 260.079,46.3346 C257.1854,52.333 252.3299,52.3888 248.4016,47.4382 C245.6937,53.4457 239.8448,54.003 235.7114,49.0955 C231.0503,54.2525 226.3314,53.2395 223.0381,47.5041 C219.5786,52.6731 215.296,53.2359 211.4945,47.8791 C207.6222,52.9827 201.5886,52.968 198.9809,46.5103 C195.358,51.1444 189.336,51.6727 187.1617,44.9964 C177.7403,43.8072 173.8446,38.5086 179.4737,29.7367 C174.306,20.9709 176.7374,15.149 187.2157,14.1591 " fill="#FEFECE" filter="url(#f84shpz26yjsr)" style="stroke:#000000;stroke-width:1.5;"/><text fill="#000000" font-family="sans-serif" font-size="14" lengthAdjust="spacing" textLength="83" x="193" y="33.3433">Docker hub</text><!--MD5=[0589dc89abf2d03dc82932a436db53e2]
link actor to ssl_port--><path d="M87.2812,483.8482 C97.2062,483.8482 107.131,483.8482 117.056,483.8482 " fill="none" id="actor-to-ssl_port" style="stroke:#A80036;stroke-width:1.0;"/><polygon fill="#A80036" points="122.246,483.8482,113.246,479.8482,117.246,483.8482,113.246,487.8482,122.246,483.8482" style="stroke:#A80036;stroke-width:1.0;"/><!--MD5=[a5282f609d853ce78e48ca3dbe0918f2]
link nginx to ghost--><path d="M540.025,483.8482 C549.946,483.8482 559.868,483.8482 569.789,483.8482 " fill="none" id="nginx-to-ghost" style="stroke:#A80036;stroke-width:1.0;"/><polygon fill="#A80036" points="574.977,483.8482,565.977,479.8482,569.977,483.8482,565.977,487.8482,574.977,483.8482" style="stroke:#A80036;stroke-width:1.0;"/><!--MD5=[6b793440840267b3c843296ba20ff3d6]
reverse link mysql to ghost--><path d="M486.167,382.8992 C515.836,405.6522 559.182,438.8922 587.611,460.6942 " fill="none" id="mysql-backto-ghost" style="stroke:#A80036;stroke-width:1.0;"/><polygon fill="#A80036" points="481.892,379.6212,486.6003,388.2717,485.8599,382.6635,491.4681,381.923,481.892,379.6212" style="stroke:#A80036;stroke-width:1.0;"/><!--MD5=[0ef8399caa29dc3baa36ff7f125e8c65]
reverse link volume to ghost--><path d="M596.85,388.3792 C601.498,410.7222 607.697,440.5242 611.879,460.6322 " fill="none" id="volume-backto-ghost" style="stroke:#A80036;stroke-width:1.0;"/><polygon fill="#A80036" points="595.824,383.4452,593.7411,393.0712,596.8425,388.3403,601.5734,391.4417,595.824,383.4452" style="stroke:#A80036;stroke-width:1.0;"/><!--MD5=[0af729e59a849dd0e300d7633ffa8615]
link backup_cont to volume--><path d="M580.673,255.5322 C582.574,274.9362 585.354,303.3192 587.473,324.9462 " fill="none" id="backup_cont-to-volume" style="stroke:#A80036;stroke-width:1.0;"/><polygon fill="#A80036" points="587.969,330.0092,591.0704,320.6613,587.4804,325.0331,583.1087,321.4431,587.969,330.0092" style="stroke:#A80036;stroke-width:1.0;"/><!--MD5=[c0a9df66a36c964ce6b6cdac95cee63c]
link backup_cont to dropbox--><path d="M658.205,248.1952 C688.63,250.8802 719.056,249.7112 749.481,244.6892 " fill="none" id="backup_cont-to-dropbox" style="stroke:#A80036;stroke-width:1.0;"/><polygon fill="#A80036" points="754.761,243.7792,745.2127,241.3647,749.8335,244.6278,746.5705,249.2486,754.761,243.7792" style="stroke:#A80036;stroke-width:1.0;"/><!--MD5=[189e7d422937dc9b00d3cb555e0c2022]
reverse link backup_cont to dropbox--><path d="M663.485,216.0732 C693.911,213.8352 724.336,215.4492 754.761,220.9172 " fill="none" id="backup_cont-backto-dropbox" style="stroke:#A80036;stroke-width:1.0;"/><polygon fill="#A80036" points="658.205,216.5012,667.498,219.7631,663.1887,216.0983,666.8535,211.7891,658.205,216.5012" style="stroke:#A80036;stroke-width:1.0;"/><!--MD5=[6ea01525d9e262b3bead374493015fe4]
link backup_cont to mysql--><path d="M544.56,255.4072 C531.674,264.5422 517.277,275.7172 505.5,287.3482 C492.52,300.1682 480.084,316.3552 470.631,329.7752 " fill="none" id="backup_cont-to-mysql" style="stroke:#A80036;stroke-width:1.0;"/><polygon fill="#A80036" points="467.542,334.2112,475.9677,329.1114,470.3993,330.108,469.4027,324.5397,467.542,334.2112" style="stroke:#A80036;stroke-width:1.0;"/><!--MD5=[50489cbfece3ed26d2707ec9019ca846]
link ssl_port to nginx--><path d="M202.865,483.8482 C227.72,483.8482 252.575,483.8482 277.429,483.8482 " fill="none" id="ssl_port-to-nginx" style="stroke:#A80036;stroke-width:1.0;"/><polygon fill="#A80036" points="282.733,483.8482,273.733,479.8482,277.733,483.8482,273.733,487.8482,282.733,483.8482" style="stroke:#A80036;stroke-width:1.0;"/><!--MD5=[77c74fbd08c900f49141c0aa137a4cc0]
link hub to docker_all--><path d="M234.5,51.3502 C234.5,64.2342 234.5,81.6779 234.5,100.6569 C234.5,105.4016 234.5,110.2423 234.5,115.1317 C234.5,115.7428 234.5,116.3548 234.5,116.9674 C234.5,117.2737 234.5,117.5801 234.5,117.8868 " fill="none" id="hub-to-docker_all" style="stroke:#A80036;stroke-width:1.0;"/><polygon fill="#A80036" points="234.5,117.8868,238.5,108.8868,234.5,112.8868,230.5,108.8868,234.5,117.8868" style="stroke:#A80036;stroke-width:1.0;"/><!--MD5=[b23b1153f609b8fa9203acb6b13d7173]
@startuml
actor "Blog visitor" as actor
folder "Linux server" as server{
  card "Port 443" as ssl_port
  node "Docker" as docker_all{
    folder "main docker containers" as docker{
      node "NGINX \n(acting as reverse proxy and \nproviding SSL/TLS encryption)" as nginx
      database "MySQL" as mysql
      node "Ghost" as ghost
      storage "Volume \n(Ghost content)" as volume
    }
    folder "auxiliary containers" as aux_docker{
      node "backup / restore" as backup_cont
    }
  }
}
cloud "Dropbox" as dropbox
cloud "Docker hub" as hub


actor -right-> ssl_port
nginx -right-> ghost
ghost -up-> mysql
ghost -up-> volume
backup_cont -down-> volume
backup_cont -right-> dropbox
backup_cont -down-> mysql
dropbox -left-> backup_cont
ssl_port -right-> nginx
hub -down-> docker_all
@enduml

PlantUML version 1.2021.4(Sun Apr 04 08:49:39 UTC 2021)
(GPL source distribution)
Java Runtime: Java(TM) SE Runtime Environment
JVM: Java HotSpot(TM) 64-Bit Server VM
Default Encoding: UTF-8
Language: en
Country: US
--></g></svg>